<svg width="20" height="20" viewBox="0 0 20 20" fill="none" xmlns="http://www.w3.org/2000/svg">
<path d="M18.5 10C18.5 14.6944 14.6944 18.5 10 18.5C5.30558 18.5 1.5 14.6944 1.5 10C1.5 5.30558 5.30558 1.5 10 1.5C14.6944 1.5 18.5 5.30558 18.5 10Z" fill="white" stroke="#495057"/>
<path d="M10 19C14.9706 19 19 14.9706 19 10C19 5.02944 14.9706 1 10 1C5.02944 1 1 5.02944 1 10C1 14.9706 5.02944 19 10 19Z" stroke="#495057" stroke-linecap="round" stroke-linejoin="round"/>
<path d="M4.8252 8.17203L6.65387 10.0007L8.48355 8.17102" stroke="#495057" stroke-miterlimit="7" stroke-linecap="round" stroke-linejoin="round"/>
<path d="M6.33301 8.53227C6.33301 6.50727 7.97547 4.86548 9.9998 4.86548C12.0234 4.86548 13.6666 6.5066 13.6666 8.53227V11.4647C13.6666 13.4897 12.0241 15.1315 9.9998 15.1315C8.56142 15.1315 7.31565 14.3027 6.71453 13.096" stroke="#495057" stroke-width="1.5" stroke-miterlimit="7" stroke-linecap="round" stroke-linejoin="round"/>
</svg>
