<svg width="20" height="20" viewBox="0 0 20 20" fill="none" xmlns="http://www.w3.org/2000/svg">
<path d="M10 19C14.9706 19 19 14.9706 19 10C19 5.02944 14.9706 1 10 1C5.02944 1 1 5.02944 1 10C1 14.9706 5.02944 19 10 19Z" stroke="#495057" stroke-width="1.5" stroke-linecap="round" stroke-linejoin="round"/>
<path d="M16.2376 16.2274L3.93848 3.92833L4.09301 3.7738" stroke="#495057" stroke-linejoin="round"/>
<path d="M12.3216 7.076C12.1028 6.22428 11.1572 5.58496 10.0237 5.58496C8.72797 5.58496 7.67773 6.42067 7.67773 7.45276C7.67773 8.48379 8.69809 9.54791 10.0002 9.99831C11.3023 10.4484 12.3494 11.4178 12.3227 12.5439C12.2978 13.5756 11.2725 14.4117 9.97673 14.4117C8.84324 14.4117 7.8976 13.7713 7.6788 12.9196" stroke="#495057" stroke-miterlimit="10" stroke-linecap="round" stroke-linejoin="round"/>
<path d="M10.002 5.58667V3.80639" stroke="#495057" stroke-miterlimit="10" stroke-linecap="round" stroke-linejoin="round"/>
<path d="M10.002 16.1924V14.4121" stroke="#495057" stroke-miterlimit="10" stroke-linecap="round" stroke-linejoin="round"/>
</svg>
