<svg width="20" height="20" viewBox="0 0 20 20" fill="none" xmlns="http://www.w3.org/2000/svg">
<path d="M10 19C14.9706 19 19 14.9706 19 10C19 5.02944 14.9706 1 10 1C5.02944 1 1 5.02944 1 10C1 14.9706 5.02944 19 10 19Z" fill="white"/>
<path d="M15.5123 12.7261C15.0778 13.1114 14.5057 13.3458 13.8779 13.3458C12.5184 13.3458 11.415 12.2434 11.415 10.8829V8.91293C11.415 7.55247 12.5184 6.45007 13.8779 6.45007C14.5053 6.45007 15.0778 6.68452 15.5123 7.06975" stroke="#495057" stroke-width="1.5" stroke-miterlimit="10" stroke-linecap="round" stroke-linejoin="round"/>
<path d="M8.57672 12.931C8.14224 13.3162 7.57012 13.5506 6.94235 13.5506C5.5829 13.5506 4.47949 12.4482 4.47949 11.0878V9.11776C4.47949 7.75731 5.5829 6.65491 6.94235 6.65491C7.56978 6.65491 8.14224 6.88935 8.57672 7.27459" stroke="#495057" stroke-width="1.5" stroke-miterlimit="10" stroke-linecap="round" stroke-linejoin="round"/>
<path d="M10 19C14.9706 19 19 14.9706 19 10C19 5.02944 14.9706 1 10 1C5.02944 1 1 5.02944 1 10C1 14.9706 5.02944 19 10 19Z" stroke="#495057" stroke-width="1.5" stroke-linecap="round" stroke-linejoin="round"/>
</svg>
