<svg width="20" height="20" viewBox="0 0 20 20" fill="none" xmlns="http://www.w3.org/2000/svg">
<path d="M18.5 10C18.5 14.6944 14.6944 18.5 10 18.5C5.30558 18.5 1.5 14.6944 1.5 10C1.5 5.30558 5.30558 1.5 10 1.5C14.6944 1.5 18.5 5.30558 18.5 10Z" fill="white" stroke="#495057"/>
<path d="M10 19C14.9706 19 19 14.9706 19 10C19 5.02944 14.9706 1 10 1C5.02944 1 1 5.02944 1 10C1 14.9706 5.02944 19 10 19Z" stroke="#495057" stroke-linecap="round" stroke-linejoin="round"/>
<path d="M10.0149 5.05185C10.3834 5.05185 10.6821 4.75313 10.6821 4.38463C10.6821 4.01613 10.3834 3.71741 10.0149 3.71741C9.64638 3.71741 9.34766 4.01613 9.34766 4.38463C9.34766 4.75313 9.64638 5.05185 10.0149 5.05185Z" fill="#495057" stroke="#495057" stroke-width="0.5" stroke-miterlimit="10"/>
<path d="M7.98535 11.3385L8.16334 7.06861C8.19579 6.44386 8.70831 5.95192 9.33373 5.94496L10.674 5.94495C11.2914 5.95192 11.8037 6.44385 11.8363 7.0686L12.0143 11.3385L7.98535 11.3385Z" fill="#495057" stroke="#495057" stroke-width="0.5" stroke-linecap="round" stroke-linejoin="round"/>
<path d="M11.1314 7.29321L11.5584 15.833C11.5707 16.0802 11.4292 16.2824 11.2438 16.2824C11.1373 16.2644 11.0404 16.2101 10.9696 16.1287C10.8987 16.0472 10.8583 15.9438 10.8552 15.8359L10.2839 10.8851C10.2549 10.6394 10.1313 10.4385 10.0077 10.4385C9.88414 10.4385 9.75987 10.6394 9.73155 10.8851L9.16096 15.8359C9.15785 15.9438 9.11742 16.0472 9.04657 16.1287C8.97572 16.2101 8.87883 16.2644 8.7724 16.2824C8.587 16.2824 8.44542 16.0802 8.45778 15.833L8.88477 7.29321" fill="#495057"/>
<path d="M11.1314 7.29321L11.5584 15.833C11.5707 16.0802 11.4292 16.2824 11.2438 16.2824C11.1373 16.2644 11.0404 16.2101 10.9696 16.1287C10.8987 16.0472 10.8583 15.9438 10.8552 15.8359L10.2839 10.8851C10.2549 10.6394 10.1313 10.4385 10.0077 10.4385C9.88414 10.4385 9.75987 10.6394 9.73155 10.8851L9.16096 15.8359C9.15785 15.9438 9.11742 16.0472 9.04657 16.1287C8.97572 16.2101 8.87883 16.2644 8.7724 16.2824C8.587 16.2824 8.44542 16.0802 8.45778 15.833L8.88477 7.29321" stroke="#495057" stroke-width="0.5" stroke-linecap="round" stroke-linejoin="round"/>
</svg>
