<svg width="12" height="13" viewBox="0 0 12 13" fill="none" xmlns="http://www.w3.org/2000/svg">
<path d="M2.4375 5.91797H0.5625C0.251836 5.91797 0 6.16981 0 6.48047V12.1055C0 12.4161 0.251836 12.668 0.5625 12.668H2.4375C2.74817 12.668 3 12.4161 3 12.1055V6.48047C3 6.16981 2.74817 5.91797 2.4375 5.91797ZM1.5 11.7305C1.18934 11.7305 0.937501 11.4786 0.937501 11.168C0.937501 10.8573 1.18934 10.6055 1.5 10.6055C1.81067 10.6055 2.0625 10.8573 2.0625 11.168C2.0625 11.4786 1.81067 11.7305 1.5 11.7305ZM9.00001 2.577C9.00001 3.57113 8.39133 4.12875 8.22008 4.79297H10.6042C11.387 4.79297 11.9963 5.44327 12 6.15464C12.002 6.57507 11.8231 7.02767 11.5444 7.3077L11.5418 7.31028C11.7723 7.85724 11.7349 8.62365 11.3236 9.17283C11.5271 9.77975 11.322 10.5253 10.9397 10.925C11.0404 11.3374 10.9923 11.6884 10.7956 11.971C10.3172 12.6583 9.13163 12.668 8.12904 12.668L8.06236 12.668C6.93064 12.6676 6.00441 12.2555 5.26018 11.9244C4.88618 11.758 4.39718 11.552 4.02617 11.5452C3.87289 11.5424 3.75 11.4173 3.75 11.264V6.25379C3.75 6.17879 3.78005 6.10681 3.83339 6.05407C4.76185 5.13664 5.16108 4.16532 5.92207 3.40303C6.26904 3.05541 6.39523 2.53031 6.51722 2.02252C6.62145 1.5889 6.83947 0.667969 7.3125 0.667969C7.875 0.667969 9.00001 0.855469 9.00001 2.577Z" fill="#8F959E"/>
</svg>
