<svg width="24" height="24" viewBox="0 0 24 24" fill="none" xmlns="http://www.w3.org/2000/svg">
<path d="M15.5898 1.75C12.6198 1.75 10.2098 4.16 10.2098 7.13C10.2098 10.1 12.6198 12.51 15.5898 12.51C18.5598 12.51 20.9698 10.1 20.9698 7.13C20.9698 4.16 18.5598 1.75 15.5898 1.75ZM6.35983 13.031C5.4764 13.0307 4.62904 13.3814 4.00417 14.0059C3.3793 14.6304 3.0281 15.4776 3.02783 16.361C3.02757 17.2444 3.37826 18.0918 4.00275 18.7167C4.62725 19.3415 5.4744 19.6927 6.35783 19.693C7.24127 19.6931 8.08857 19.3423 8.71335 18.7177C9.33813 18.0931 9.6892 17.2459 9.68933 16.3625C9.68946 15.4791 9.33865 14.6318 8.71406 14.007C8.08947 13.3822 7.24327 13.0311 6.35983 13.031ZM16.6198 16.621C15.0698 16.621 13.8098 17.881 13.8098 19.431C13.8098 20.981 15.0698 22.241 16.6198 22.241C18.1698 22.241 19.4298 20.981 19.4298 19.431C19.4298 17.881 18.1698 16.621 16.6198 16.621Z" fill="black"/>
</svg>
