<svg width="15" height="21" viewBox="0 0 15 21" fill="none" xmlns="http://www.w3.org/2000/svg">
<path d="M1 19.2438V3.00004C1 2.6022 1.15804 2.22066 1.43935 1.93935C1.72066 1.65804 2.1022 1.5 2.50004 1.5H12.5002C12.898 1.5 13.2796 1.65804 13.5609 1.93935C13.8422 2.22066 14.0002 2.60221 14.0002 3.00004V19.2438L7.97456 15.9962L7.50012 15.7405L7.02568 15.9962L1 19.2438Z" stroke="#000028" stroke-width="2"/>
<path fill-rule="evenodd" clip-rule="evenodd" d="M11.0674 6.93362C11.1256 6.99168 11.1718 7.06065 11.2033 7.13658C11.2348 7.21251 11.251 7.29392 11.251 7.37613C11.251 7.45834 11.2348 7.53974 11.2033 7.61567C11.1718 7.69161 11.1256 7.76058 11.0674 7.81863L7.31736 11.5687C7.2593 11.6269 7.19033 11.6731 7.1144 11.7046C7.03847 11.7361 6.95706 11.7523 6.87485 11.7523C6.79264 11.7523 6.71124 11.7361 6.63531 11.7046C6.55937 11.6731 6.4904 11.6269 6.43235 11.5687L4.55732 9.69366C4.49921 9.63555 4.45311 9.56657 4.42166 9.49064C4.39021 9.41472 4.37402 9.33334 4.37402 9.25116C4.37402 9.16898 4.39021 9.0876 4.42166 9.01167C4.45311 8.93575 4.49921 8.86676 4.55732 8.80865C4.61543 8.75054 4.68441 8.70444 4.76034 8.67299C4.83627 8.64154 4.91764 8.62536 4.99982 8.62536C5.082 8.62536 5.16338 8.64154 5.23931 8.67299C5.31523 8.70444 5.38422 8.75054 5.44233 8.80865L6.87485 10.2424L10.1824 6.93362C10.2405 6.87541 10.3094 6.82924 10.3854 6.79773C10.4613 6.76622 10.5427 6.75 10.6249 6.75C10.7071 6.75 10.7885 6.76622 10.8645 6.79773C10.9404 6.82924 11.0094 6.87541 11.0674 6.93362Z" fill="#000028"/>
</svg>
