<svg width="20" height="21" viewBox="0 0 20 21" fill="none" xmlns="http://www.w3.org/2000/svg">
<path d="M1.11111 11.6111H7.77778C8.39111 11.6111 8.88889 11.1144 8.88889 10.5V1.61111C8.88889 0.996667 8.39111 0.5 7.77778 0.5H1.11111C0.497778 0.5 0 0.996667 0 1.61111V10.5C0 11.1144 0.497778 11.6111 1.11111 11.6111ZM0 19.3889C0 20.0033 0.497778 20.5 1.11111 20.5H7.77778C8.39111 20.5 8.88889 20.0033 8.88889 19.3889V14.9444C8.88889 14.33 8.39111 13.8333 7.77778 13.8333H1.11111C0.497778 13.8333 0 14.33 0 14.9444V19.3889ZM11.1111 19.3889C11.1111 20.0033 11.6078 20.5 12.2222 20.5H18.8889C19.5033 20.5 20 20.0033 20 19.3889V11.6111C20 10.9967 19.5033 10.5 18.8889 10.5H12.2222C11.6078 10.5 11.1111 10.9967 11.1111 11.6111V19.3889ZM12.2222 8.27778H18.8889C19.5033 8.27778 20 7.78111 20 7.16667V1.61111C20 0.996667 19.5033 0.5 18.8889 0.5H12.2222C11.6078 0.5 11.1111 0.996667 11.1111 1.61111V7.16667C11.1111 7.78111 11.6078 8.27778 12.2222 8.27778Z" fill="#000028"/>
</svg>
