<svg width="12" height="9" viewBox="0 0 12 9" fill="none" xmlns="http://www.w3.org/2000/svg">
<path d="M6.9 0.46875H5.1C4.76869 0.46875 4.5 0.737437 4.5 1.06875V2.86875C4.5 3.20006 4.76869 3.46875 5.1 3.46875H6.9C7.23131 3.46875 7.5 3.20006 7.5 2.86875V1.06875C7.5 0.737437 7.23131 0.46875 6.9 0.46875ZM3.9 1.51875H2.31094C2.13281 1.07925 1.70325 0.76875 1.2 0.76875C0.537375 0.76875 0 1.30594 0 1.96875C0 2.63156 0.537375 3.16875 1.2 3.16875C1.70325 3.16875 2.13281 2.85825 2.31094 2.41875H3.80588C2.76769 3.0285 2.0085 4.056 1.752 5.26875H2.67825C2.89013 4.48856 3.36769 3.82106 4.01025 3.3645C3.94088 3.213 3.9 3.04594 3.9 2.86875V1.51875ZM3 5.86875H1.2C0.868688 5.86875 0.6 6.13744 0.6 6.46875V8.26875C0.6 8.60006 0.868688 8.86875 1.2 8.86875H3C3.33131 8.86875 3.6 8.60006 3.6 8.26875V6.46875C3.6 6.13744 3.33131 5.86875 3 5.86875ZM10.8 0.76875C10.2968 0.76875 9.86719 1.07925 9.68906 1.51875H8.1V2.86875C8.1 3.04594 8.05894 3.213 7.98975 3.3645C8.63231 3.82106 9.10988 4.48856 9.32175 5.26875H10.248C9.9915 4.056 9.23231 3.0285 8.19413 2.41875H9.68906C9.86719 2.85825 10.2968 3.16875 10.8 3.16875C11.4626 3.16875 12 2.63156 12 1.96875C12 1.30594 11.4626 0.76875 10.8 0.76875ZM10.8 5.86875H9C8.66869 5.86875 8.4 6.13744 8.4 6.46875V8.26875C8.4 8.60006 8.66869 8.86875 9 8.86875H10.8C11.1313 8.86875 11.4 8.60006 11.4 8.26875V6.46875C11.4 6.13744 11.1313 5.86875 10.8 5.86875Z" fill="#8F959E"/>
</svg>
