<svg width="20" height="21" viewBox="0 0 20 21" fill="none" xmlns="http://www.w3.org/2000/svg">
<path d="M3.81325 10.2475C3.72484 10.0944 3.57925 9.98263 3.40848 9.93683C3.2377 9.89103 3.05573 9.91492 2.90257 10.0033L0.830725 11.1982C0.636771 11.3093 0.467349 11.4586 0.33268 11.6371C0.19801 11.8155 0.100886 12.0194 0.0471661 12.2364C-0.0562055 12.6667 0.0117996 13.1203 0.236804 13.5013L0.418523 13.8156C0.639744 14.1981 1.00378 14.4772 1.43065 14.5914C1.85751 14.7057 2.31228 14.6458 2.69501 14.4249L4.76519 13.2317C4.8411 13.1879 4.90764 13.1297 4.96102 13.0602C5.0144 12.9907 5.05357 12.9114 5.07629 12.8268C5.09901 12.7422 5.10484 12.654 5.09344 12.5671C5.08204 12.4802 5.05363 12.3965 5.00984 12.3206L3.81325 10.2475Z" fill="#000028"/>
<path d="M15.2869 18.2009L11.3641 10.4154C11.3545 10.3963 11.3526 10.3744 11.3587 10.354C11.3649 10.3336 11.3786 10.3164 11.397 10.3057L11.7429 10.1061C11.8188 10.0623 11.8853 10.004 11.9386 9.93456C11.992 9.86507 12.0311 9.78576 12.0538 9.70116C12.0765 9.61655 12.0823 9.5283 12.0708 9.44145C12.0594 9.35461 12.031 9.27087 11.9872 9.19501L10.0062 5.76361C9.96244 5.6877 9.90417 5.62115 9.8347 5.56777C9.76524 5.51439 9.68593 5.47522 9.60132 5.4525C9.51671 5.42978 9.42845 5.42396 9.34159 5.43536C9.25473 5.44676 9.17096 5.47517 9.09508 5.51895L5.49488 7.59455C5.30482 7.70343 5.13826 7.84894 5.00483 8.02265C4.87141 8.19635 4.77377 8.3948 4.71757 8.60651C4.67935 8.73871 4.66012 8.87568 4.66047 9.01329C4.66297 9.33005 5.04392 9.9594 5.41569 10.6088C5.81539 11.3069 6.21759 12.0208 6.5135 12.1988C6.70189 12.3122 7.03449 12.403 7.31415 12.403H7.34916L4.04321 19.5551C4.00638 19.6346 3.98558 19.7206 3.982 19.8081C3.97842 19.8957 3.99214 19.9831 4.02236 20.0654C4.05259 20.1476 4.09872 20.2231 4.15814 20.2875C4.21756 20.3519 4.28909 20.404 4.36864 20.4407C4.44819 20.4775 4.53421 20.4982 4.62177 20.5017C4.70933 20.5052 4.79672 20.4914 4.87895 20.4611C4.96117 20.4308 5.03661 20.3845 5.10096 20.3251C5.16531 20.2656 5.21731 20.194 5.25398 20.1144L9.15843 11.6682C9.18716 11.6057 9.23465 11.5537 9.2943 11.5194L10.095 11.0576C10.1048 11.052 10.1157 11.0485 10.1269 11.0472C10.1382 11.0459 10.1496 11.0469 10.1604 11.0502C10.1713 11.0535 10.1813 11.0589 10.19 11.0662C10.1987 11.0735 10.2057 11.0825 10.2108 11.0926L14.0957 18.8032C14.1753 18.9612 14.3144 19.081 14.4823 19.1364C14.6503 19.1919 14.8334 19.1783 14.9914 19.0987C15.1493 19.0191 15.2692 18.88 15.3246 18.7121C15.38 18.5441 15.3665 18.361 15.2869 18.203V18.2009Z" fill="#000028"/>
<path d="M19.7617 4.65106L17.8395 1.3276C17.6177 0.945631 17.2536 0.667079 16.8269 0.552885C16.4002 0.438691 15.9456 0.498151 15.5626 0.718258L11.6723 2.95974C11.4822 3.06855 11.3156 3.21403 11.1822 3.38775C11.0487 3.56147 10.9511 3.75995 10.895 3.97169C10.8398 4.15021 10.8218 4.33817 10.8421 4.52394C10.9146 5.04992 11.3839 5.79097 11.9428 6.77C12.5088 7.75903 13.1478 8.87394 13.482 9.11526C13.7646 9.315 14.1021 9.42231 14.4481 9.42243C14.7396 9.42254 15.026 9.34577 15.2784 9.19987L19.1695 6.95714C19.363 6.84624 19.5322 6.69736 19.6668 6.51945C19.8013 6.34154 19.8986 6.13827 19.9526 5.92184C20.0568 5.48954 19.9883 5.03368 19.7617 4.65106Z" fill="#000028"/>
</svg>
