<svg width="12" height="12" viewBox="0 0 12 12" fill="none" xmlns="http://www.w3.org/2000/svg">
<path d="M8.80635 7.75661C9.53255 6.76562 9.8578 5.53697 9.71705 4.31647C9.57629 3.09596 8.97991 1.97361 8.04721 1.17396C7.1145 0.374301 5.91427 -0.0436868 4.68664 0.00361806C3.459 0.0509229 2.29449 0.560032 1.42608 1.42909C0.557678 2.29815 0.0494211 3.46307 0.00299649 4.69078C-0.0434281 5.9185 0.375403 7.11848 1.1757 8.05064C1.97599 8.9828 3.09873 9.57841 4.31929 9.71829C5.53985 9.85818 6.76822 9.53203 7.75864 8.8051H7.75789C7.78039 8.8351 7.80439 8.8636 7.83139 8.89135L10.7188 11.7789C10.8594 11.9196 11.0502 11.9987 11.2491 11.9988C11.4481 11.9988 11.6389 11.9199 11.7796 11.7792C11.9203 11.6386 11.9994 11.4478 11.9995 11.2489C11.9996 11.0499 11.9206 10.8591 11.78 10.7184L8.8926 7.83086C8.86579 7.80371 8.83696 7.77864 8.80635 7.75586V7.75661ZM8.99985 4.87361C8.99985 5.41531 8.89316 5.95171 8.68586 6.45218C8.47857 6.95264 8.17474 7.40738 7.79171 7.79042C7.40868 8.17346 6.95396 8.47731 6.45351 8.68461C5.95306 8.89191 5.41668 8.9986 4.875 8.9986C4.33332 8.9986 3.79694 8.89191 3.29649 8.68461C2.79604 8.47731 2.34132 8.17346 1.9583 7.79042C1.57527 7.40738 1.27144 6.95264 1.06414 6.45218C0.856849 5.95171 0.750157 5.41531 0.750157 4.87361C0.750157 3.77959 1.18474 2.73038 1.9583 1.95679C2.73185 1.18321 3.78103 0.74861 4.875 0.74861C5.96898 0.74861 7.01815 1.18321 7.79171 1.95679C8.56527 2.73038 8.99985 3.77959 8.99985 4.87361Z" fill="#8F959E"/>
</svg>
