<svg width="12" height="15" viewBox="0 0 12 15" fill="none" xmlns="http://www.w3.org/2000/svg">
<path d="M11.6786 5.09821H0.321429C0.14392 5.09821 0 4.95429 0 4.77679V3.8125C0 3.10241 0.575625 2.52679 1.28571 2.52679H2.57143V1.13393C2.57143 0.95642 2.71535 0.8125 2.89286 0.8125H3.96429C4.14179 0.8125 4.28571 0.95642 4.28571 1.13393V2.52679H7.71429V1.13393C7.71429 0.95642 7.85821 0.8125 8.03571 0.8125H9.10714C9.28465 0.8125 9.42857 0.95642 9.42857 1.13393V2.52679H10.7143C11.4244 2.52679 12 3.10241 12 3.8125V4.77679C12 4.95429 11.8561 5.09821 11.6786 5.09821ZM0.321429 5.95536H11.6786C11.8561 5.95536 12 6.09928 12 6.27679V13.2411C12 13.9512 11.4244 14.5268 10.7143 14.5268H1.28571C0.575625 14.5268 0 13.9512 0 13.2411V6.27679C0 6.09928 0.14392 5.95536 0.321429 5.95536ZM9.249 8.52537L8.49447 7.76471C8.36946 7.63868 8.16595 7.63785 8.03992 7.76288L5.19964 10.5803L3.96804 9.33874C3.84303 9.21271 3.63948 9.21188 3.51346 9.33692L2.75282 10.0915C2.62679 10.2165 2.62596 10.42 2.751 10.546L4.96353 12.7764C5.08854 12.9025 5.29205 12.9033 5.41808 12.7783L9.24718 8.97992C9.37321 8.85491 9.37404 8.65139 9.249 8.52537Z" fill="#8F959E"/>
</svg>
