<svg width="20" height="27" viewBox="0 0 20 27" fill="none" xmlns="http://www.w3.org/2000/svg">
<path d="M0.118523 26.2613L0.832626 25.8333L0.118523 26.2613ZM0.118523 26.2613C0.196007 26.3906 0.30711 26.4964 0.439999 26.5676C0.572888 26.6387 0.722588 26.6725 0.873152 26.6653C1.02372 26.6581 1.16951 26.6102 1.295 26.5267M0.118523 26.2613C0.04104 26.132 7.78674e-05 25.9841 0 25.8333V3.33333C0 2.44928 0.351189 1.60143 0.976311 0.976311C1.60143 0.35119 2.44928 0 3.33333 0H16.6667C17.5507 0 18.3986 0.35119 19.0237 0.976311M1.295 26.5267L19.0237 0.976311M1.295 26.5267L10 21.835L1.295 26.5267ZM19.0237 0.976311L18.3166 1.68342C17.879 1.24583 17.2855 1 16.6667 1H3.33333C2.71449 1 2.121 1.24583 1.68342 1.68342C1.24583 2.121 1 2.71449 1 3.33333V25.5497L9.52556 20.9547L10 20.699L10.4744 20.9547L19 25.5497V3.33333C19 2.7145 18.7542 2.121 18.3166 1.68342L19.0237 0.976311Z" stroke="#000028" stroke-width="2"/>
</svg>
