<svg width="24" height="24" viewBox="0 0 24 24" fill="none" xmlns="http://www.w3.org/2000/svg">
<g clip-path="url(#clip0_1245_3882)">
<path d="M12 22.5C9.21523 22.5 6.54451 21.3938 4.57538 19.4246C2.60625 17.4555 1.5 14.7848 1.5 12C1.5 9.21523 2.60625 6.54451 4.57538 4.57538C6.54451 2.60625 9.21523 1.5 12 1.5C14.7848 1.5 17.4555 2.60625 19.4246 4.57538C21.3938 6.54451 22.5 9.21523 22.5 12C22.5 14.7848 21.3938 17.4555 19.4246 19.4246C17.4555 21.3938 14.7848 22.5 12 22.5ZM12 24C15.1826 24 18.2348 22.7357 20.4853 20.4853C22.7357 18.2348 24 15.1826 24 12C24 8.8174 22.7357 5.76516 20.4853 3.51472C18.2348 1.26428 15.1826 0 12 0C8.8174 0 5.76516 1.26428 3.51472 3.51472C1.26428 5.76516 0 8.8174 0 12C0 15.1826 1.26428 18.2348 3.51472 20.4853C5.76516 22.7357 8.8174 24 12 24Z" fill="#BDBDBD"/>
<path d="M7.88215 8.679C7.8801 8.72744 7.88798 8.77579 7.9053 8.82107C7.92263 8.86636 7.94903 8.90762 7.98289 8.94232C8.01675 8.97703 8.05735 9.00444 8.10219 9.02287C8.14704 9.0413 8.19518 9.05036 8.24365 9.0495H9.48115C9.68815 9.0495 9.85315 8.88 9.88015 8.6745C10.0152 7.6905 10.6902 6.9735 11.8932 6.9735C12.9222 6.9735 13.8642 7.488 13.8642 8.7255C13.8642 9.678 13.3032 10.116 12.4167 10.782C11.4072 11.5155 10.6077 12.372 10.6647 13.7625L10.6692 14.088C10.6707 14.1864 10.7109 14.2803 10.7811 14.3493C10.8512 14.4183 10.9457 14.457 11.0442 14.457H12.2607C12.3601 14.457 12.4555 14.4175 12.5258 14.3472C12.5961 14.2768 12.6357 14.1815 12.6357 14.082V13.9245C12.6357 12.8475 13.0452 12.534 14.1507 11.6955C15.0642 11.001 16.0167 10.23 16.0167 8.6115C16.0167 6.345 14.1027 5.25 12.0072 5.25C10.1067 5.25 8.02465 6.135 7.88215 8.679ZM10.2177 17.3235C10.2177 18.123 10.8552 18.714 11.7327 18.714C12.6462 18.714 13.2747 18.123 13.2747 17.3235C13.2747 16.4955 12.6447 15.9135 11.7312 15.9135C10.8552 15.9135 10.2177 16.4955 10.2177 17.3235Z" fill="#BDBDBD"/>
</g>
<defs>
<clipPath id="clip0_1245_3882">
<rect width="24" height="24" fill="white"/>
</clipPath>
</defs>
</svg>
