<svg width="25" height="26" viewBox="0 0 25 26" fill="none" xmlns="http://www.w3.org/2000/svg">
<g clip-path="url(#clip0_1245_3879)">
<path d="M12.5 25.5014C13.3288 25.5014 14.1237 25.1721 14.7097 24.5861C15.2958 24 15.625 23.2052 15.625 22.3764H9.375C9.375 23.2052 9.70424 24 10.2903 24.5861C10.8763 25.1721 11.6712 25.5014 12.5 25.5014ZM12.5 3.49824L11.2547 3.7498C9.84212 4.03762 8.57239 4.80465 7.66039 5.92109C6.7484 7.03752 6.25015 8.43478 6.25 9.87637C6.25 10.8576 6.04062 13.3092 5.53281 15.7232C5.28281 16.9217 4.94531 18.1701 4.49688 19.2514H20.5031C20.0547 18.1701 19.7188 16.9232 19.4672 15.7232C18.9594 13.3092 18.75 10.8576 18.75 9.87637C18.7495 8.43505 18.2511 7.03816 17.3391 5.92205C16.4271 4.80593 15.1576 4.03913 13.7453 3.75137L12.5 3.49668V3.49824ZM22.2188 19.2514C22.5672 19.9498 22.9703 20.5029 23.4375 20.8139H1.5625C2.02969 20.5029 2.43281 19.9498 2.78125 19.2514C4.1875 16.4389 4.6875 11.2514 4.6875 9.87637C4.6875 6.09512 7.375 2.93887 10.9453 2.21855C10.9235 2.00129 10.9475 1.78188 11.0157 1.57445C11.0839 1.36702 11.1948 1.17619 11.3413 1.01427C11.4878 0.852346 11.6666 0.722921 11.8661 0.634343C12.0657 0.545765 12.2816 0.5 12.5 0.5C12.7184 0.5 12.9343 0.545765 13.1339 0.634343C13.3334 0.722921 13.5122 0.852346 13.6587 1.01427C13.8052 1.17619 13.9161 1.36702 13.9843 1.57445C14.0525 1.78188 14.0765 2.00129 14.0547 2.21855C15.8208 2.57777 17.4084 3.5363 18.5488 4.93184C19.6892 6.32737 20.3123 8.07414 20.3125 9.87637C20.3125 11.2514 20.8125 16.4389 22.2188 19.2514Z" fill="#828282"/>
<circle cx="19.5" cy="7" r="3.5" fill="#EB5757"/>
</g>
<defs>
<clipPath id="clip0_1245_3879">
<rect width="25" height="25" fill="white" transform="translate(0 0.5)"/>
</clipPath>
</defs>
</svg>
