<svg width="14" height="15" viewBox="0 0 14 15" fill="none" xmlns="http://www.w3.org/2000/svg">
<g clip-path="url(#clip0_1246_14253)">
<path d="M12.6383 5.3575L11.1298 6.866C11.0626 6.93274 10.9541 6.9332 10.8869 6.866L7.8022 3.78087C7.735 3.7139 7.735 3.6054 7.8022 3.5382L9.3107 2.0297L7.9492 0.667969L0 8.61717L1.36103 9.97844L2.82287 8.5173C2.88983 8.4501 2.99833 8.4501 3.06577 8.5173L6.15067 11.6024C6.2174 11.6694 6.2174 11.7786 6.15067 11.8451L4.68953 13.3067L6.0508 14.668L14 6.71924L12.6383 5.3575ZM7.4858 1.76954L7.94593 1.30964C8.0073 1.2485 8.1053 1.2485 8.1662 1.30964L8.62657 1.76954C8.6877 1.83067 8.6877 1.92937 8.62657 1.99027L8.1662 2.4504C8.10507 2.51107 8.00707 2.51107 7.94593 2.4504L7.4858 1.99027C7.42513 1.92914 7.42513 1.83044 7.4858 1.76954ZM6.1152 3.14037L6.57533 2.68024C6.636 2.6191 6.7354 2.6191 6.79583 2.68024L7.2555 3.14037C7.31687 3.20104 7.31687 3.3002 7.2555 3.36087L6.79583 3.821C6.73517 3.88214 6.63577 3.88214 6.57533 3.821L6.1152 3.36087C6.0543 3.3002 6.0543 3.20104 6.1152 3.14037ZM4.74927 4.5063L5.20917 4.04664C5.2703 3.9855 5.36923 3.9855 5.43013 4.04664L5.8898 4.5063C5.95093 4.56744 5.95093 4.66614 5.8898 4.72727L5.43013 5.18694C5.369 5.24807 5.27007 5.24807 5.20917 5.18694L4.74927 4.72727C4.68813 4.66614 4.68813 4.56744 4.74927 4.5063ZM1.78197 8.83464L1.32207 9.295C1.26093 9.35614 1.162 9.35567 1.1011 9.295L0.6412 8.83464C0.5803 8.77397 0.5803 8.67504 0.6412 8.6139L1.1011 8.15424C1.16223 8.0931 1.26117 8.0931 1.32207 8.15424L1.78197 8.6139C1.84263 8.67504 1.84263 8.77397 1.78197 8.83464ZM3.1528 7.46427L2.6929 7.92394C2.63177 7.98507 2.53283 7.98507 2.47193 7.92394L2.0118 7.46427C1.95113 7.40314 1.95113 7.3042 2.0118 7.2433L2.47193 6.78317C2.53307 6.72227 2.632 6.72227 2.6929 6.78317L3.1528 7.2433C3.2137 7.3042 3.2137 7.40314 3.1528 7.46427ZM3.37843 5.8769L3.83833 5.41724C3.89947 5.3561 3.99863 5.3561 4.0593 5.41724L4.5192 5.8769C4.57987 5.93804 4.57987 6.03674 4.5192 6.09787L4.0593 6.55754C3.9984 6.61867 3.89923 6.61867 3.83833 6.55754L3.37843 6.09787C3.3173 6.03674 3.3173 5.93804 3.37843 5.8769ZM3.79377 7.78954C3.72657 7.72257 3.72657 7.6136 3.79377 7.54664L6.87843 4.46127C6.9454 4.3943 7.05437 4.3943 7.12133 4.46127L10.2065 7.54664C10.2734 7.6136 10.2734 7.72257 10.2065 7.78954L7.12133 10.8744C7.05437 10.9414 6.9454 10.9414 6.87843 10.8744L3.79377 7.78954ZM6.49273 13.5454L6.0326 14.0053C5.97147 14.0664 5.87277 14.0664 5.81187 14.0053L5.35197 13.5454C5.29083 13.4843 5.29083 13.3856 5.35197 13.3247L5.81187 12.8645C5.873 12.8039 5.9717 12.8039 6.0326 12.8645L6.49273 13.3247C6.5534 13.3858 6.5534 13.4845 6.49273 13.5454ZM7.86357 12.1746L7.4032 12.6342C7.34253 12.6954 7.24313 12.6954 7.1827 12.6342L6.72257 12.1746C6.66143 12.1137 6.66143 12.0145 6.72257 11.9541L7.1827 11.4937C7.24337 11.433 7.34277 11.433 7.4032 11.4937L7.86357 11.9541C7.92423 12.0147 7.92423 12.1139 7.86357 12.1746ZM9.2295 10.8086L8.7696 11.2683C8.70847 11.3297 8.6093 11.3297 8.54887 11.2683L8.08873 10.8086C8.02783 10.7475 8.02783 10.6488 8.08873 10.5879L8.54887 10.128C8.60953 10.0669 8.7087 10.0669 8.7696 10.128L9.2295 10.5879C9.2904 10.6488 9.2904 10.7475 9.2295 10.8086ZM10.5999 9.43757L10.1402 9.89793C10.0791 9.9586 9.98037 9.9586 9.91947 9.89793L9.45957 9.43757C9.39843 9.3769 9.39843 9.27774 9.45957 9.21684L9.91947 8.75717C9.9806 8.6958 10.0793 8.6958 10.1402 8.75717L10.5999 9.21684C10.6608 9.27774 10.6608 9.3769 10.5999 9.43757ZM11.966 8.07164L11.5064 8.53154C11.4452 8.59267 11.3465 8.59267 11.2856 8.53154L10.8253 8.07164C10.7641 8.0105 10.7641 7.91134 10.8253 7.85067L11.2856 7.39054C11.3468 7.32987 11.4455 7.32987 11.5064 7.39054L11.966 7.85067C12.0274 7.91157 12.0274 8.01074 11.966 8.07164ZM12.8774 7.1607C12.8163 7.22184 12.7171 7.22184 12.656 7.1607L12.1963 6.70057C12.1352 6.63944 12.1352 6.54074 12.1963 6.4803L12.656 6.01994C12.7174 5.9588 12.8165 5.9588 12.8774 6.01994L13.3373 6.4803C13.398 6.54097 13.398 6.63967 13.3373 6.70057L12.8774 7.1607Z" fill="#000028"/>
</g>
<defs>
<clipPath id="clip0_1246_14253">
<rect width="14" height="15" fill="white"/>
</clipPath>
</defs>
</svg>
