<svg width="24" height="24" viewBox="0 0 24 24" fill="none" xmlns="http://www.w3.org/2000/svg">
<path d="M20 14.25C20.5967 14.25 21.169 14.0129 21.591 13.591C22.0129 13.169 22.25 12.5967 22.25 12C22.25 11.4033 22.0129 10.831 21.591 10.409C21.169 9.98705 20.5967 9.75 20 9.75C19.4033 9.75 18.831 9.98705 18.409 10.409C17.9871 10.831 17.75 11.4033 17.75 12C17.75 12.5967 17.9871 13.169 18.409 13.591C18.831 14.0129 19.4033 14.25 20 14.25ZM20 6.25C20.5967 6.25 21.169 6.01295 21.591 5.59099C22.0129 5.16903 22.25 4.59674 22.25 4C22.25 3.40326 22.0129 2.83097 21.591 2.40901C21.169 1.98705 20.5967 1.75 20 1.75C19.4033 1.75 18.831 1.98705 18.409 2.40901C17.9871 2.83097 17.75 3.40326 17.75 4C17.75 4.59674 17.9871 5.16903 18.409 5.59099C18.831 6.01295 19.4033 6.25 20 6.25ZM20 22.25C20.2955 22.25 20.5881 22.1918 20.861 22.0787C21.134 21.9657 21.3821 21.7999 21.591 21.591C21.7999 21.3821 21.9657 21.134 22.0787 20.861C22.1918 20.5881 22.25 20.2955 22.25 20C22.25 19.7045 22.1918 19.4119 22.0787 19.139C21.9657 18.866 21.7999 18.6179 21.591 18.409C21.3821 18.2001 21.134 18.0343 20.861 17.9213C20.5881 17.8082 20.2955 17.75 20 17.75C19.4033 17.75 18.831 17.9871 18.409 18.409C17.9871 18.831 17.75 19.4033 17.75 20C17.75 20.5967 17.9871 21.169 18.409 21.591C18.831 22.0129 19.4033 22.25 20 22.25ZM4 14.25C4.59674 14.25 5.16903 14.0129 5.59099 13.591C6.01295 13.169 6.25 12.5967 6.25 12C6.25 11.4033 6.01295 10.831 5.59099 10.409C5.16903 9.98705 4.59674 9.75 4 9.75C3.40326 9.75 2.83097 9.98705 2.40901 10.409C1.98705 10.831 1.75 11.4033 1.75 12C1.75 12.5967 1.98705 13.169 2.40901 13.591C2.83097 14.0129 3.40326 14.25 4 14.25Z" fill="black"/>
<path d="M19 12.75C19.41 12.75 19.75 12.41 19.75 12C19.75 11.59 19.41 11.25 19 11.25H11.75V7C11.75 5.42 12.42 4.75 14 4.75H19C19.41 4.75 19.75 4.41 19.75 4C19.75 3.59 19.41 3.25 19 3.25H14C11.58 3.25 10.25 4.58 10.25 7V11.25H5C4.59 11.25 4.25 11.59 4.25 12C4.25 12.41 4.59 12.75 5 12.75H10.25V17C10.25 19.42 11.58 20.75 14 20.75H19C19.41 20.75 19.75 20.41 19.75 20C19.75 19.59 19.41 19.25 19 19.25H14C12.42 19.25 11.75 18.58 11.75 17V12.75H19Z" fill="black"/>
</svg>
