<svg width="12" height="13" viewBox="0 0 12 13" fill="none" xmlns="http://www.w3.org/2000/svg">
<path d="M5.24414 3.73243L3.6239 1.03219C3.55728 0.921109 3.46303 0.829177 3.35032 0.765348C3.23762 0.701519 3.1103 0.66797 2.98077 0.667969H0.375687C0.0721708 0.667969 -0.105486 1.00945 0.0684207 1.25813L2.67632 4.98376C3.37288 4.3329 4.25882 3.88618 5.24414 3.73243ZM11.6243 0.667969H9.01923C8.75579 0.667969 8.51157 0.80625 8.3761 1.03219L6.75586 3.73243C7.74118 3.88618 8.62712 4.3329 9.32368 4.98353L11.9316 1.25813C12.1055 1.00945 11.9278 0.667969 11.6243 0.667969ZM6 4.41798C3.72187 4.41798 1.87499 6.26486 1.87499 8.54299C1.87499 10.8211 3.72187 12.668 6 12.668C8.27813 12.668 10.125 10.8211 10.125 8.54299C10.125 6.26486 8.27813 4.41798 6 4.41798ZM8.16844 8.10377L7.27946 8.97002L7.48969 10.1939C7.52719 10.4133 7.2961 10.5809 7.09946 10.4773L6 9.89956L4.90078 10.4773C4.7039 10.5816 4.47304 10.4131 4.51054 10.1939L4.72078 8.97002L3.83179 8.10377C3.67195 7.94815 3.76031 7.6765 3.98062 7.64463L5.20945 7.46557L5.75859 6.35181C5.80805 6.2515 5.90367 6.20205 5.99953 6.20205C6.09586 6.20205 6.19219 6.2522 6.24164 6.35181L6.79078 7.46557L8.01962 7.64463C8.23993 7.6765 8.32829 7.94815 8.16844 8.10377Z" fill="#8F959E"/>
</svg>
