<svg width="24" height="24" viewBox="0 0 24 24" fill="none" xmlns="http://www.w3.org/2000/svg">
<path d="M14 16.0012C14 17.7712 13.23 19.3712 12 20.4612C10.9053 21.4553 9.47871 22.0046 8 22.0012C4.69 22.0012 2 19.3112 2 16.0012C2.0006 15.0387 2.23312 14.0905 2.67787 13.2368C3.12261 12.3832 3.7665 11.6493 4.555 11.0972C4.804 10.9232 5.139 11.0422 5.273 11.3142C5.742 12.2658 6.40768 13.1069 7.226 13.782C8.04433 14.457 8.99666 14.9507 10.02 15.2302C10.65 15.4102 11.31 15.5002 12 15.5002C12.487 15.5002 12.954 15.4542 13.407 15.3692C13.696 15.3152 13.983 15.4992 13.995 15.7932C13.999 15.8632 14 15.9322 14 16.0002V16.0012Z" fill="black"/>
<path d="M18 8C18.0016 9.3166 17.5695 10.5971 16.7706 11.6436C15.9717 12.6901 14.8504 13.4444 13.58 13.79C13.08 13.93 12.55 14 12 14C11.45 14 10.92 13.93 10.42 13.79C9.14956 13.4444 8.02828 12.6901 7.22938 11.6436C6.43048 10.5971 5.99844 9.3166 6 8C6 4.69 8.69 2 12 2C15.31 2 18 4.69 18 8ZM22 16C21.9988 16.9702 21.7625 17.9256 21.3114 18.7845C20.8604 19.6434 20.2079 20.3802 19.4099 20.9319C18.6119 21.4836 17.6921 21.8337 16.7292 21.9524C15.7663 22.071 14.7891 21.9545 13.881 21.613C13.562 21.492 13.503 21.084 13.725 20.825C14.8738 19.4802 15.5035 17.7687 15.5 16C15.5 15.66 15.47 15.32 15.42 15C15.4066 14.9098 15.4212 14.8176 15.462 14.736C15.5028 14.6544 15.5678 14.5874 15.648 14.544C16.9802 13.8076 18.0547 12.6807 18.727 11.315C18.861 11.043 19.197 10.923 19.445 11.098C20.233 11.6498 20.8766 12.3833 21.3213 13.2363C21.7661 14.0894 21.9988 15.037 22 15.999V16Z" fill="black"/>
</svg>
