<svg width="24" height="24" viewBox="0 0 24 24" fill="none" xmlns="http://www.w3.org/2000/svg">
<path d="M15.5898 12.26C16.9503 12.26 18.2552 11.7195 19.2172 10.7575C20.1793 9.7954 20.7198 8.49056 20.7198 7.13C20.7198 5.76944 20.1793 4.4646 19.2172 3.50254C18.2552 2.54048 16.9503 2 15.5898 2C14.2292 2 12.9244 2.54048 11.9623 3.50254C11.0003 4.4646 10.4598 5.76944 10.4598 7.13C10.4598 8.49056 11.0003 9.7954 11.9623 10.7575C12.9244 11.7195 14.2292 12.26 15.5898 12.26ZM6.35979 19.44C7.17665 19.44 7.96006 19.1155 8.53767 18.5379C9.11529 17.9603 9.43979 17.1769 9.43979 16.36C9.43979 15.5431 9.11529 14.7597 8.53767 14.1821C7.96006 13.6045 7.17665 13.28 6.35979 13.28C5.54292 13.28 4.75951 13.6045 4.1819 14.1821C3.60428 14.7597 3.27979 15.5431 3.27979 16.36C3.27979 17.1769 3.60428 17.9603 4.1819 18.5379C4.75951 19.1155 5.54292 19.44 6.35979 19.44ZM16.6198 22C16.956 22 17.2889 21.9338 17.5995 21.8051C17.91 21.6765 18.1923 21.4879 18.43 21.2502C18.6677 21.0125 18.8563 20.7303 18.9849 20.4197C19.1136 20.1091 19.1798 19.7762 19.1798 19.44C19.1798 19.1038 19.1136 18.7709 18.9849 18.4603C18.8563 18.1497 18.6677 17.8675 18.43 17.6298C18.1923 17.3921 17.91 17.2035 17.5995 17.0749C17.2889 16.9462 16.956 16.88 16.6198 16.88C15.9408 16.88 15.2897 17.1497 14.8096 17.6298C14.3295 18.1099 14.0598 18.761 14.0598 19.44C14.0598 20.119 14.3295 20.7701 14.8096 21.2502C15.2897 21.7303 15.9408 22 16.6198 22Z" stroke="black" stroke-width="1.5" stroke-miterlimit="10"/>
</svg>
